<?xml version="1.0" standalone="no"?>
<svg xmlns="http://www.w3.org/2000/svg" xmlns:xlink="http://www.w3.org/1999/xlink" width="290pt" height="490pt" viewBox="0.00 0.00 289.58 490.40">
<g id="graph0" class="graph" transform="translate(4,486.3999938964844) scale(1)" data-name="G">

<polygon fill="white" stroke="none" points="-4,4 -4,-486.4 285.58,-486.4 285.58,4 -4,4" style=""/>
<!-- Post -->
<g id="node1" class="node" pointer-events="visible" data-name="Post">

<polygon fill="none" stroke="black" points="156.27,-482.6 55.52,-482.6 55.52,-339.8 156.27,-339.8 156.27,-482.6" style=""/>
<text text-anchor="middle" x="105.89" y="-465.8" font-family="Times,serif" font-size="14.00" style="">Post</text>
<text text-anchor="middle" x="105.89" y="-449" font-family="Times,serif" font-size="14.00" style="">- blogs</text>
<text text-anchor="middle" x="105.89" y="-432.2" font-family="Times,serif" font-size="14.00" style="">- loading</text>
<text text-anchor="middle" x="105.89" y="-415.4" font-family="Times,serif" font-size="14.00" style="">- error</text>
<text text-anchor="middle" x="105.89" y="-398.6" font-family="Times,serif" font-size="14.00" style="">- isModalOpen</text>
<text text-anchor="middle" x="105.89" y="-381.8" font-family="Times,serif" font-size="14.00" style="">- content</text>
<text text-anchor="middle" x="105.89" y="-365" font-family="Times,serif" font-size="14.00" style="">+ fetchBlogs()</text>
<text text-anchor="middle" x="105.89" y="-348.2" font-family="Times,serif" font-size="14.00" style="">+ createPost()</text>
</g>
<!-- Comments -->
<g id="node2" class="node" pointer-events="visible" data-name="Comments">

<polygon fill="none" stroke="black" points="165.68,-287.2 0.11,-287.2 0.11,-195.2 165.68,-195.2 165.68,-287.2" style=""/>
<text text-anchor="middle" x="82.89" y="-270.6" font-family="Times,serif" font-size="14.00" style="">Comments</text>
<text text-anchor="middle" x="82.89" y="-253.8" font-family="Times,serif" font-size="14.00" style="">- comments</text>
<text text-anchor="middle" x="82.89" y="-237" font-family="Times,serif" font-size="14.00" style="">- content</text>
<text text-anchor="middle" x="82.89" y="-220.2" font-family="Times,serif" font-size="14.00" style="">- showComments</text>
<text text-anchor="middle" x="82.89" y="-203.4" font-family="Times,serif" font-size="14.00" style="">+ handleCreateComment()</text>
</g>
<!-- Post&#45;&gt;Comments -->
<g id="edge1" class="edge" data-name="Post-&gt;Comments">

<path fill="none" stroke="black" d="M96.21,-339.44C94.35,-325.85 92.42,-311.78 90.63,-298.71" style=""/>
<polygon fill="black" stroke="black" points="94.13,-298.45 89.3,-289.01 87.19,-299.4 94.13,-298.45" style=""/>
<text text-anchor="middle" x="105.95" y="-309.4" font-family="Times,serif" font-size="14.00" style="">uses</text>
</g>
<!-- PostServices -->
<g id="node3" class="node" pointer-events="visible" data-name="PostServices">

<polygon fill="none" stroke="black" points="281.77,-270.6 184.02,-270.6 184.02,-211.8 281.77,-211.8 281.77,-270.6" style=""/>
<text text-anchor="middle" x="232.89" y="-253.8" font-family="Times,serif" font-size="14.00" style="">PostServices</text>
<text text-anchor="middle" x="232.89" y="-237" font-family="Times,serif" font-size="14.00" style="">+ fetchBlogs()</text>
<text text-anchor="middle" x="232.89" y="-220.2" font-family="Times,serif" font-size="14.00" style="">+ createPost()</text>
</g>
<!-- Post&#45;&gt;PostServices -->
<g id="edge2" class="edge" data-name="Post-&gt;PostServices">

<path fill="none" stroke="black" d="M156.45,-343.32C172.79,-321.71 190.31,-298.53 204.45,-279.82" style=""/>
<polygon fill="black" stroke="black" points="207.16,-282.04 210.4,-271.96 201.58,-277.82 207.16,-282.04" style=""/>
<text text-anchor="middle" x="195.95" y="-309.4" font-family="Times,serif" font-size="14.00" style="">uses</text>
</g>
<!-- postSchema -->
<g id="node4" class="node" pointer-events="visible" data-name="postSchema">

<polygon fill="none" stroke="black" points="274.55,-142.6 191.24,-142.6 191.24,0.2 274.55,0.2 274.55,-142.6" style=""/>
<text text-anchor="middle" x="232.89" y="-125.8" font-family="Times,serif" font-size="14.00" style="">postSchema</text>
<text text-anchor="middle" x="232.89" y="-109" font-family="Times,serif" font-size="14.00" style="">- id</text>
<text text-anchor="middle" x="232.89" y="-92.2" font-family="Times,serif" font-size="14.00" style="">- content</text>
<text text-anchor="middle" x="232.89" y="-75.4" font-family="Times,serif" font-size="14.00" style="">- title</text>
<text text-anchor="middle" x="232.89" y="-58.6" font-family="Times,serif" font-size="14.00" style="">- authorId</text>
<text text-anchor="middle" x="232.89" y="-41.8" font-family="Times,serif" font-size="14.00" style="">- createdAt</text>
<text text-anchor="middle" x="232.89" y="-25" font-family="Times,serif" font-size="14.00" style="">- author</text>
<text text-anchor="middle" x="232.89" y="-8.2" font-family="Times,serif" font-size="14.00" style="">- comments</text>
</g>
<!-- PostServices&#45;&gt;postSchema -->
<g id="edge3" class="edge" data-name="PostServices-&gt;postSchema">

<path fill="none" stroke="black" d="M232.89,-211.32C232.89,-195.41 232.89,-174.77 232.89,-154.29" style=""/>
<polygon fill="black" stroke="black" points="236.39,-154.47 232.89,-144.47 229.39,-154.47 236.39,-154.47" style=""/>
<text text-anchor="middle" x="244.95" y="-164.6" font-family="Times,serif" font-size="14.00" style="">uses</text>
</g>
</g>
</svg>